<?xml version="1.0" standalone="no"?>
<svg xmlns="http://www.w3.org/2000/svg" viewBox="0 0 234.817 29" width="234.817" height="29"><g fill="#555d63" color="#555d63" transform="translate(0, 0) scale(0.29)"><svg width="100.0" height="100.0" x="0.0" y="0.0" viewBox="0 0 100 100"><path style="" d="M99.975,59.486c0,1.768-1.429,3.198-3.196,3.198H58.779c-0.901,0-1.714-0.371-2.296-0.975  l-25.08-25.901L5.478,61.748c-0.58,0.58-1.378,0.937-2.261,0.937c-1.766,0-3.195-1.431-3.195-3.198c0-0.883,0.358-1.682,0.935-2.259  L29.18,28.989c0.579-0.577,1.379-0.937,2.261-0.937c0.901,0,1.715,0.373,2.295,0.973l7.348,7.592h19.7v-8.896h8.479v8.896H79.55  c0.957,0,1.818,0.423,2.405,1.089l17.229,19.673C99.677,57.943,99.975,58.683,99.975,59.486z M22.589,58.375h6.974v-6.978h-6.974  V58.375z M33.104,58.375h6.973v-6.978h-6.973V58.375z M22.589,68.361h6.974v-6.978h-6.974V68.361z M33.104,68.397h6.973v-6.979  h-6.973V68.397z" fill="currentColor"></path></svg></g><line x1="41" y1="1" x2="41" y2="28" stroke="#157f86" stroke-linecap="round"></line><path fill="#157f86" fill-rule="nonzero" d="M7.44 16.80Q5.21 16.80 3.52 15.72Q1.82 14.64 0.91 12.78Q0 10.92 0 8.64L0 8.64Q0 6.29 1.00 4.30Q1.99 2.30 3.71 1.15Q5.42 0 7.44 0L7.44 0Q9.36 0 10.81 0.54Q12.26 1.08 12.96 1.92L12.96 1.92Q13.37 2.42 13.46 3.25Q13.56 4.08 13.56 5.52L13.56 5.52L13.08 5.52Q12.62 3.19 11.40 2.08Q10.18 0.96 8.16 0.96L8.16 0.96Q5.57 0.96 3.98 2.78Q2.40 4.61 2.40 8.64L2.40 8.64Q2.40 10.54 3.01 12.17Q3.62 13.80 4.92 14.82Q6.22 15.84 8.16 15.84L8.16 15.84Q9.91 15.84 11.22 15Q12.53 14.16 13.56 12.48L13.56 12.48L14.04 12.84Q12.94 15 11.32 15.90Q9.70 16.80 7.44 16.80L7.44 16.80ZM16.63 16.32L16.63 3.36Q16.63 2.14 16.30 1.55Q15.96 0.96 14.95 0.96L14.95 0.96L14.47 0.96L14.47 0.48L16.63 0.48Q17.52 0.48 17.96 0.71Q18.41 0.94 18.60 1.54Q18.79 2.14 18.79 3.36L18.79 3.36L18.79 6Q19.30 5.50 20.10 5.15Q20.90 4.80 21.91 4.80L21.91 4.80Q23.71 4.80 24.85 5.76Q25.99 6.72 25.99 9.12L25.99 9.12L25.99 16.32L23.83 16.32L23.83 9.12Q23.83 7.44 23.08 6.66Q22.32 5.88 21.19 5.88L21.19 5.88Q19.92 5.88 18.79 7.15L18.79 7.15L18.79 16.32L16.63 16.32ZM32.02 16.56Q31.25 16.56 30.46 16.24Q29.66 15.91 29.10 15.17Q28.54 14.42 28.54 13.20L28.54 13.20Q28.54 11.38 30.23 10.61Q31.92 9.84 34.66 9.84L34.66 9.84L35.38 9.84Q35.38 7.49 34.73 6.62Q34.08 5.76 32.86 5.76L32.86 5.76Q31.78 5.76 31.13 6.22Q30.48 6.67 30.22 7.80L30.22 7.80L29.14 7.80Q29.14 6.98 29.23 6.52Q29.33 6.05 29.74 5.64L29.74 5.64Q30.17 5.21 31.16 5.00Q32.16 4.80 33.34 4.80L33.34 4.80Q35.28 4.80 36.41 5.84Q37.54 6.89 37.54 9.84L37.54 9.84L37.54 16.32L36.34 16.32L35.50 15.24L35.38 15.24Q34.94 15.79 34.10 16.18Q33.26 16.56 32.02 16.56L32.02 16.56ZM33.10 15.48Q33.89 15.48 34.42 15.10Q34.94 14.71 35.38 14.04L35.38 14.04L35.38 10.80L34.66 10.80Q32.88 10.80 31.85 11.46Q30.82 12.12 30.82 13.20L30.82 13.20Q30.82 14.30 31.48 14.89Q32.14 15.48 33.10 15.48L33.10 15.48ZM41.23 16.32L41.23 7.92Q41.23 6.70 40.90 6.11Q40.56 5.52 39.55 5.52L39.55 5.52L39.07 5.52L39.07 5.04L41.23 5.04Q42.12 5.04 42.59 5.28Q43.06 5.52 43.27 6L43.27 6L43.39 6Q43.90 5.50 44.70 5.15Q45.50 4.80 46.51 4.80L46.51 4.80Q47.52 4.80 48.24 5.17Q48.96 5.54 49.39 6.48L49.39 6.48Q50.02 5.69 50.99 5.24Q51.96 4.80 52.99 4.80L52.99 4.80Q54.53 4.80 55.44 5.76Q56.35 6.72 56.35 9.12L56.35 9.12L56.35 16.32L54.19 16.32L54.19 9.12Q54.19 7.39 53.71 6.64Q53.23 5.88 52.27 5.88L52.27 5.88Q51.60 5.88 50.86 6.37Q50.11 6.86 49.75 7.44L49.75 7.44Q49.87 7.80 49.87 9.12L49.87 9.12L49.87 16.32L47.71 16.32L47.71 9.12Q47.71 7.39 47.23 6.64Q46.75 5.88 45.79 5.88L45.79 5.88Q44.52 5.88 43.39 7.15L43.39 7.15L43.39 16.32L41.23 16.32ZM65.11 16.56Q63.89 16.56 63.10 16.18Q62.30 15.79 61.87 15.24L61.87 15.24L61.75 15.24L60.91 16.32L59.71 16.32L59.71 3.36Q59.71 2.14 59.38 1.55Q59.04 0.96 58.03 0.96L58.03 0.96L57.55 0.96L57.55 0.48L59.71 0.48Q60.60 0.48 61.04 0.71Q61.49 0.94 61.68 1.54Q61.87 2.14 61.87 3.36L61.87 3.36L61.87 5.52Q62.57 5.18 63.26 4.99Q63.96 4.80 64.87 4.80L64.87 4.80Q67.10 4.80 68.27 6.46Q69.43 8.11 69.43 10.68L69.43 10.68Q69.43 13.22 68.30 14.89Q67.18 16.56 65.11 16.56L65.11 16.56ZM64.39 15.60Q65.76 15.60 66.46 14.24Q67.15 12.89 67.15 10.68L67.15 10.68Q67.15 8.45 66.42 7.10Q65.69 5.76 64.15 5.76L64.15 5.76Q63.65 5.76 63.12 5.95Q62.59 6.14 61.87 6.48L61.87 6.48L61.87 14.16Q62.30 14.81 62.89 15.20Q63.48 15.60 64.39 15.60L64.39 15.60ZM72.46 16.32L72.46 7.92Q72.46 6.70 72.12 6.11Q71.78 5.52 70.78 5.52L70.78 5.52L70.54 5.52L70.54 5.04L72.46 5.04Q73.37 5.04 73.84 5.29Q74.30 5.54 74.50 6.12L74.50 6.12L74.62 6.12Q75.05 5.57 75.78 5.18Q76.51 4.80 77.50 4.80L77.50 4.80Q78.46 4.80 78.94 5.16L78.94 5.16Q79.34 5.47 79.78 6.24L79.78 6.24L78.82 6.96Q78.55 6.60 78.05 6.42Q77.54 6.24 76.90 6.24L76.90 6.24Q76.18 6.24 75.58 6.56Q74.98 6.89 74.62 7.44L74.62 7.44L74.62 16.32L72.46 16.32ZM85.97 16.56Q84.34 16.56 83.21 15.78Q82.08 15 81.50 13.67Q80.93 12.34 80.93 10.68L80.93 10.68Q80.93 9.05 81.50 7.70Q82.08 6.36 83.17 5.58Q84.26 4.80 85.73 4.80L85.73 4.80Q88.15 4.80 89.34 6.16Q90.53 7.51 90.53 10.08L90.53 10.08L90.48 11.04L83.21 11.04Q83.21 13.06 84.07 14.33Q84.94 15.60 86.45 15.60L86.45 15.60Q87.58 15.60 88.36 15.12Q89.14 14.64 89.81 13.68L89.81 13.68L90.29 14.04Q89.50 15.36 88.44 15.96Q87.38 16.56 85.97 16.56L85.97 16.56ZM83.21 10.08L88.25 10.08Q88.25 7.97 87.62 6.86Q87.00 5.76 85.73 5.76L85.73 5.76Q85.01 5.76 84.43 6.32Q83.86 6.89 83.53 7.87Q83.21 8.86 83.21 10.08L83.21 10.08ZM97.06 16.56Q94.30 16.56 93.34 15.60L93.34 15.60Q92.93 15.19 92.83 14.68Q92.74 14.16 92.74 13.08L92.74 13.08L93.22 13.08Q93.43 14.28 94.26 14.94Q95.09 15.60 96.58 15.60L96.58 15.60Q97.90 15.60 98.56 15.14Q99.22 14.69 99.22 13.92L99.22 13.92Q99.22 13.22 98.70 12.72Q98.18 12.22 97.06 11.76L97.06 11.76L95.62 11.16Q94.18 10.58 93.46 9.82Q92.74 9.05 92.74 7.92L92.74 7.92Q92.74 6.46 93.84 5.63Q94.94 4.80 96.70 4.80L96.70 4.80Q99.34 4.80 100.30 5.76L100.30 5.76Q100.70 6.17 100.80 6.67Q100.90 7.18 100.90 8.28L100.90 8.28L100.42 8.28Q100.22 7.08 99.41 6.42Q98.59 5.76 97.18 5.76L97.18 5.76Q96.05 5.76 95.41 6.23Q94.78 6.70 94.78 7.44L94.78 7.44Q94.78 8.69 96.70 9.48L96.70 9.48L98.14 10.08Q99.77 10.75 100.51 11.51Q101.26 12.26 101.26 13.44L101.26 13.44Q101.26 14.90 100.08 15.73Q98.90 16.56 97.06 16.56L97.06 16.56ZM113.71 16.56Q111.62 16.56 110.51 14.90Q109.39 13.25 109.39 10.68L109.39 10.68Q109.39 8.11 110.56 6.46Q111.72 4.80 113.95 4.80L113.95 4.80Q114.86 4.80 115.56 4.99Q116.26 5.18 116.95 5.52L116.95 5.52L116.95 3.36Q116.95 2.14 116.62 1.55Q116.28 0.96 115.27 0.96L115.27 0.96L114.79 0.96L114.79 0.48L116.95 0.48Q117.84 0.48 118.28 0.71Q118.73 0.94 118.92 1.54Q119.11 2.14 119.11 3.36L119.11 3.36L119.11 16.32L117.91 16.32L117.07 15.24L116.95 15.24Q116.42 15.84 115.72 16.20Q115.01 16.56 113.71 16.56L113.71 16.56ZM114.43 15.60Q115.42 15.60 115.92 15.24Q116.42 14.88 116.95 14.16L116.95 14.16L116.95 6.48Q116.23 6.14 115.70 5.95Q115.18 5.76 114.67 5.76L114.67 5.76Q113.14 5.76 112.40 7.10Q111.67 8.45 111.67 10.68L111.67 10.68Q111.67 12.89 112.37 14.24Q113.06 15.60 114.43 15.60L114.43 15.60ZM123.79 6.96L122.83 6.96L122.11 0.48L124.51 0.48L123.79 6.96ZM134.33 16.80Q132.10 16.80 130.40 15.70Q128.71 14.59 127.80 12.67Q126.89 10.75 126.89 8.40L126.89 8.40Q126.89 6.05 127.80 4.13Q128.71 2.21 130.40 1.10Q132.10 0 134.33 0L134.33 0Q136.56 0 138.25 1.10Q139.94 2.21 140.86 4.13Q141.77 6.05 141.77 8.40L141.77 8.40Q141.77 10.75 140.86 12.67Q139.94 14.59 138.25 15.70Q136.56 16.80 134.33 16.80L134.33 16.80ZM134.33 15.84Q135.89 15.84 137.03 14.93Q138.17 14.02 138.77 12.35Q139.37 10.68 139.37 8.40L139.37 8.40Q139.37 6.12 138.77 4.45Q138.17 2.78 137.03 1.87Q135.89 0.96 134.33 0.96L134.33 0.96Q132.77 0.96 131.63 1.87Q130.49 2.78 129.89 4.45Q129.29 6.12 129.29 8.40L129.29 8.40Q129.29 10.68 129.89 12.35Q130.49 14.02 131.63 14.93Q132.77 15.84 134.33 15.84L134.33 15.84ZM144.96 20.88L144.96 7.92Q144.96 6.70 144.62 6.11Q144.29 5.52 143.28 5.52L143.28 5.52L142.80 5.52L142.80 5.04L144.96 5.04Q145.87 5.04 146.34 5.29Q146.81 5.54 147 6.12L147 6.12L147.12 6.12Q147.55 5.57 148.34 5.18Q149.14 4.80 150.36 4.80L150.36 4.80Q152.42 4.80 153.55 6.47Q154.68 8.14 154.68 10.68L154.68 10.68Q154.68 13.25 153.52 14.90Q152.35 16.56 150.12 16.56L150.12 16.56Q149.21 16.56 148.51 16.37Q147.82 16.18 147.12 15.84L147.12 15.84L147.12 20.88L144.96 20.88ZM149.40 15.60Q150.94 15.60 151.67 14.26Q152.40 12.91 152.40 10.68L152.40 10.68Q152.40 8.47 151.70 7.12Q151.01 5.76 149.64 5.76L149.64 5.76Q148.03 5.76 147.12 7.20L147.12 7.20L147.12 14.88Q147.84 15.22 148.37 15.41Q148.90 15.60 149.40 15.60L149.40 15.60ZM160.20 16.56Q159.43 16.56 158.64 16.24Q157.85 15.91 157.28 15.17Q156.72 14.42 156.72 13.20L156.72 13.20Q156.72 11.38 158.41 10.61Q160.10 9.84 162.84 9.84L162.84 9.84L163.56 9.84Q163.56 7.49 162.91 6.62Q162.26 5.76 161.04 5.76L161.04 5.76Q159.96 5.76 159.31 6.22Q158.66 6.67 158.40 7.80L158.40 7.80L157.32 7.80Q157.32 6.98 157.42 6.52Q157.51 6.05 157.92 5.64L157.92 5.64Q158.35 5.21 159.35 5.00Q160.34 4.80 161.52 4.80L161.52 4.80Q163.46 4.80 164.59 5.84Q165.72 6.89 165.72 9.84L165.72 9.84L165.72 16.32L164.52 16.32L163.68 15.24L163.56 15.24Q163.13 15.79 162.29 16.18Q161.45 16.56 160.20 16.56L160.20 16.56ZM161.28 15.48Q162.07 15.48 162.60 15.10Q163.13 14.71 163.56 14.04L163.56 14.04L163.56 10.80L162.84 10.80Q161.06 10.80 160.03 11.46Q159.00 12.12 159.00 13.20L159.00 13.20Q159.00 14.30 159.66 14.89Q160.32 15.48 161.28 15.48L161.28 15.48ZM169.15 16.32L169.15 3.36Q169.15 2.14 168.82 1.55Q168.48 0.96 167.47 0.96L167.47 0.96L166.99 0.96L166.99 0.48L169.15 0.48Q170.04 0.48 170.48 0.71Q170.93 0.94 171.12 1.54Q171.31 2.14 171.31 3.36L171.31 3.36L171.31 16.32L169.15 16.32ZM179.26 16.56Q177.62 16.56 176.50 15.78Q175.37 15 174.79 13.67Q174.22 12.34 174.22 10.68L174.22 10.68Q174.22 9.05 174.79 7.70Q175.37 6.36 176.46 5.58Q177.55 4.80 179.02 4.80L179.02 4.80Q181.44 4.80 182.63 6.16Q183.82 7.51 183.82 10.08L183.82 10.08L183.77 11.04L176.50 11.04Q176.50 13.06 177.36 14.33Q178.22 15.60 179.74 15.60L179.74 15.60Q180.86 15.60 181.64 15.12Q182.42 14.64 183.10 13.68L183.10 13.68L183.58 14.04Q182.78 15.36 181.73 15.96Q180.67 16.56 179.26 16.56L179.26 16.56ZM176.50 10.08L181.54 10.08Q181.54 7.97 180.91 6.86Q180.29 5.76 179.02 5.76L179.02 5.76Q178.30 5.76 177.72 6.32Q177.14 6.89 176.82 7.87Q176.50 8.86 176.50 10.08L176.50 10.08Z" transform="translate(51, 6.34)"></path></svg>